# xmcd CD database file
#
# Track frame offsets:
#	150
#	12602
#	27090
#	41741
#
# Disc length: 777 seconds
#
# Revision: 0
# Processed by: cddbd v1.5.2PL0 Copyright (c) Steve Scherf et al.
# Submitted via: CDex 1.51
#
DISCID=2b030704
DTITLE=SaraBeth - Obsessive
DYEAR=2014
DGENRE=Country
TTITLE0=I Don't Want To Wear You Home
TTITLE1=Nowhere With You
TTITLE2=Obsessive
TTITLE3=Unusually Over You
EXTD=YEAR: 2014
EXTT0=
EXTT1=
EXTT2=
EXTT3=
PLAYORDER=
